# xmcd CD database file
#
# Track frame offsets:
#	150
#	14859
#	28399
#	40727
#	56490
#	71512
#	88594
#	101752
#	117034
#	131485
#
# Disc length: 2001 seconds
#
# Revision: 0
# Processed by: cddbd v1.5.2PL0 Copyright (c) Steve Scherf et al.
# Submitted via: CDex 1.79
#
DISCID=8807cf0a
DTITLE=Adam Brand - Get On Your Feet
DYEAR=2017
DGENRE=Country
TTITLE0=Every Time She Walks By
TTITLE1=Get On Your Feet
TTITLE2=Why Can't Love Be Easy
TTITLE3=Leave It On
TTITLE4=Drunk
TTITLE5=When You Get Lonely
TTITLE6=Rest Of Your Night
TTITLE7=Around A Campfire
TTITLE8=Rent Money
TTITLE9=If Heaven Has A Soundtrack
EXTD=YEAR: 2017
EXTT0=
EXTT1=
EXTT2=
EXTT3=
EXTT4=
EXTT5=
EXTT6=
EXTT7=
EXTT8=
EXTT9=
PLAYORDER=
